<svg width="32" height="32" viewBox="0 0 32 32" fill="none" xmlns="http://www.w3.org/2000/svg">
<path fill-rule="evenodd" clip-rule="evenodd" d="M21.5446 10.9771C21.5446 14.11 19.047 16.6221 15.9322 16.6221C12.8174 16.6221 10.3198 14.11 10.3198 10.9771C10.3198 7.84294 12.8174 5.33325 15.9322 5.33325C19.047 5.33325 21.5446 7.84294 21.5446 10.9771ZM15.9322 26.6666C11.3573 26.6666 7.45094 25.9413 7.45094 23.0401C7.45094 20.1378 11.3322 19.3861 15.9322 19.3861C20.5071 19.3861 24.4135 20.1114 24.4135 23.0137C24.4135 25.9149 20.5322 26.6666 15.9322 26.6666ZM23.943 11.0789C23.943 12.676 23.4666 14.1638 22.6309 15.4006C22.5449 15.5279 22.6213 15.6996 22.773 15.726C22.9819 15.762 23.198 15.7825 23.4176 15.7885C25.6084 15.8461 27.5747 14.4279 28.1179 12.2929C28.9226 9.12157 26.5599 6.27445 23.5514 6.27445C23.2242 6.27445 22.9114 6.30927 22.607 6.37171C22.5652 6.38132 22.5211 6.40053 22.4972 6.43776C22.4685 6.48339 22.49 6.54463 22.5187 6.58426C23.4224 7.85832 23.943 9.41216 23.943 11.0789ZM27.5711 18.0167C29.0432 18.3061 30.0114 18.8969 30.4125 19.7554C30.7516 20.4603 30.7516 21.2781 30.4125 21.9817C29.7989 23.3134 27.8206 23.7409 27.0518 23.8514C26.893 23.8754 26.7653 23.7373 26.782 23.5776C27.1748 19.8875 24.0504 18.138 23.2422 17.7357C23.2075 17.7177 23.2004 17.6901 23.2039 17.6732C23.2063 17.6612 23.2207 17.642 23.2469 17.6384C24.9959 17.606 26.8763 17.8462 27.5711 18.0167ZM8.58298 15.7883C8.80265 15.7823 9.01755 15.7631 9.22767 15.7259C9.37929 15.6995 9.4557 15.5278 9.36974 15.4005C8.53403 14.1636 8.05768 12.6758 8.05768 11.0788C8.05768 9.41204 8.57821 7.8582 9.48197 6.58414C9.51062 6.54451 9.53091 6.48327 9.50346 6.43764C9.47958 6.40161 9.43421 6.3812 9.39362 6.37159C9.08799 6.30915 8.77519 6.27433 8.44807 6.27433C5.43952 6.27433 3.07685 9.12145 3.88271 12.2928C4.42593 14.4278 6.39223 15.846 8.58298 15.7883ZM8.79608 17.6725C8.79966 17.6905 8.7925 17.717 8.75907 17.7362C7.94963 18.1384 4.82527 19.888 5.21805 23.5769C5.23477 23.7378 5.10822 23.8747 4.94943 23.8519C4.18058 23.7414 2.20234 23.3139 1.58869 21.9822C1.24843 21.2774 1.24843 20.4608 1.58869 19.7559C1.98983 18.8974 2.95686 18.3066 4.4289 18.016C5.12493 17.8466 7.00408 17.6065 8.75429 17.6389C8.78056 17.6425 8.79369 17.6617 8.79608 17.6725Z" fill="#130F26"/>
</svg>
