<svg width="32" height="32" viewBox="0 0 32 32" fill="none" xmlns="http://www.w3.org/2000/svg">
<path d="M12.1799 27.6979V23.6209C12.1799 22.5802 13.0297 21.7365 14.0781 21.7365H17.9103C18.4137 21.7365 18.8966 21.935 19.2525 22.2884C19.6085 22.6418 19.8085 23.1211 19.8085 23.6209V27.6979C19.8053 28.1305 19.9762 28.5466 20.2833 28.8537C20.5904 29.1607 21.0082 29.3334 21.4441 29.3334H24.0586C25.2797 29.3365 26.4518 28.8572 27.3164 28.0012C28.1809 27.1451 28.6668 25.9827 28.6668 24.7705V13.1559C28.6668 12.1767 28.2296 11.2479 27.473 10.6196L18.5789 3.56791C17.0317 2.3315 14.815 2.37142 13.314 3.66272L4.62285 10.6196C3.83048 11.2294 3.3569 12.1609 3.3335 13.1559V24.7587C3.3335 27.2852 5.39667 29.3334 7.94173 29.3334H10.4965C11.4018 29.3334 12.1375 28.6084 12.1441 27.7097L12.1799 27.6979Z" fill="#130F26"/>
</svg>
